<svg xmlns="http://www.w3.org/2000/svg" xmlns:xlink="http://www.w3.org/1999/xlink" style="vertical-align:-2.755ex" width="43.836ex" height="6.509ex" viewBox="0 -1616.6 18873.6 2802.6"><defs><path id="h" stroke-width="1" d="M60 749l4 1h22l28-24q94-85 137-212t43-264q0-68-10-131T261 12t-37-88-38-67-41-51-32-33-23-19l-4-4H63q-3 0-5 3t-3 9q1 1 11 13Q221-64 221 250T66 725q-10 12-11 13 0 8 5 11z"/><path id="a" stroke-width="1" d="M55 507q0 83 57 140t131 57h14q85 0 148-63l21 31q5 7 10 15t10 13l3 4h4q3 0 6 1h4q3 0 9-6V462l-6-6h-18q-11 0-13 3t-5 20q-17 126-101 167-37 16-75 16-53 0-86-36t-33-84q0-34 17-62t48-45q10-4 86-23t84-23q57-22 93-75t37-123q0-81-52-146T301-21q-56 0-100 17t-61 31l-18 14q-4-5-15-20T87-7t-9-14q-2-1-10-1h-4q-3 0-9 6v117q0 119 1 121 2 5 20 5h13q6-6 6-13 0-32 10-63t34-61 66-48 100-18q47 0 81 38t34 93q0 43-22 78t-58 48q-56 14-74 19-5 1-27 6t-33 8-32 11-33 18-29 24-27 35q-30 49-30 105z"/><path id="c" stroke-width="1" d="M132 622q-7 7-11 9t-16 3-43 3H29v46h106q86 0 97-1t17-7q1-1 105-277l104-274 104 274q104 276 106 277 3 6 15 7t98 1h106v-46h-33q-40-1-51-3t-18-12V61q6-10 17-12t52-3h33V0h-11q-21 3-140 3-131 0-140-3h-11v46h33q42 1 51 3t19 12v552l-1 19Q454 14 450 7q-4-6-20-6t-20 6q-1 2-118 309L176 624v-18q-1-18-1-63t0-80 0-107l1-270q11-36 85-40h17V0h-9q-15 3-115 3Q52 3 37 0h-8v46h17q32 2 52 10t24 13 10 17v536z"/><path id="d" stroke-width="1" d="M94 250q0 69 10 131t23 107 37 88 38 67 42 52 33 34 25 21h17q14 0 14-9 0-3-17-21t-41-53-49-86-42-138-17-193 17-192 41-139 49-86 42-53 17-21q0-9-15-9h-16l-28 24q-94 85-137 212T94 250z"/><path id="e" stroke-width="1" d="M52 289q7 42 54 97t116 56q35 0 64-18t43-45q42 63 101 63 37 0 64-22t28-59q0-29-14-47t-27-22-23-4q-19 0-31 11t-12 29q0 46 50 63-11 13-40 13-13 0-19-2-38-16-56-66-60-221-60-258 0-28 16-40t35-12q37 0 73 33t49 81q3 10 6 11t16 2h4q15 0 15-8 0-1-2-11-16-57-62-101T333-11q-70 0-106 63-41-62-94-62h-6q-49 0-70 26T35 71q0 32 19 52t45 20q43 0 43-42 0-20-12-35t-23-20-13-5l-3-1q0-1 6-4t16-7 19-3q36 0 62 45 9 16 23 68t28 108 16 66q5 27 5 39 0 28-15 40t-34 12q-40 0-75-32t-49-82q-2-9-5-10t-16-2H58q-6 6-6 11z"/><path id="f" stroke-width="1" d="M78 35v25l16 43 43 18q28 0 50-25t23-88q0-35-9-68t-21-57-26-41-24-27-13-9q-4 0-13 9t-9 13q0 4 11 16t25 30 26 50 16 73V9l-1-1q-2-1-5-2t-6-3-9-2-12-1q-27 0-44 17z"/><path id="g" stroke-width="1" d="M21 287q0 14 15 48t48 71 74 36q41 0 66-23t26-64q-2-19-3-21 0-3-16-46t-33-97-16-86q0-43 14-60t42-18q23 0 43 11t31 23 27 33q0 1 5 20t14 59 19 74q38 150 42 157 13 27 43 27 13 0 21-7t11-12 2-9q0-13-49-210T391-23q-28-83-97-132t-138-50q-45 0-79 22t-34 66q0 22 7 37t19 22 20 10 17 3q44 0 44-42 0-20-12-35t-23-20-13-5l-3-1q2-5 19-12t34-7h8q17 0 26 2 33 9 61 38t43 62 23 56 8 30l-6-4q-6-4-19-11T270-6q-20-5-39-5-46 0-81 22t-46 71q-1 7-1 31 0 57 35 149t35 117v14q0 3-4 7t-11 4h-4q-23 0-42-19t-30-41-17-42-8-22q-2-2-16-2H27q-6 6-6 9z"/><path id="b" stroke-width="1" d="M328 0q-21 3-148 3T32 0H21v46h22q49 0 63 3t20 11q2 3 2 282 0 278-2 281-4 5-8 7t-22 5-53 2H21v46h11q21-3 148-3t148 3h11v-46h-22q-49 0-63-3t-20-11q-2-3-2-281 0-279 2-282 4-5 8-7t22-5 53-2h22V0h-11z"/><path id="i" stroke-width="1" d="M56 347q0 13 14 20h637q15-8 15-20 0-11-14-19l-318-1H72q-16 5-16 20zm0-194q0 15 16 20h636q14-10 14-20 0-13-15-20H70q-14 7-14 20z"/><path id="j" stroke-width="1" d="M109 429q-27 0-43 18t-16 44q0 71 53 123t132 52q91 0 152-56t62-145q0-43-20-82t-48-68-80-74q-36-31-100-92l-59-56 76-1q157 0 167 5 7 2 24 89v3h40v-3q-1-3-13-91T421 3V0H50v31q0 7 6 15t30 35q29 32 50 56 9 10 34 37t34 37 29 33 28 34 23 30 21 32 15 29 13 32 7 30 3 33q0 63-34 109t-97 46q-33 0-58-17t-35-33-10-19q0-1 5-1 18 0 37-14t19-46q0-25-16-42t-45-18z"/><path id="k" stroke-width="1" d="M58-216q-14 0-24 8t-11 22q0 10 73 302t77 298q13 28 46 28 12-1 20-7t10-12 2-10q0-12-31-134t-33-137q-2-11-2-35v-8q0-73 67-73 9 0 18 1t17 4 15 7 13 7 12 10 11 10 10 12 8 11 9 12l7 10 36 143q36 142 40 151 13 27 43 27 13 0 21-7t11-12 2-10L449 84q-1-5-1-16 0-25 7-33t21-9q9 1 20 9 21 20 41 96 6 20 10 21 2 1 10 1h4q19 0 19-9 0-6-5-27t-20-54-32-50Q510 0 491-8q-8-2-24-2-21 0-38 6t-27 15-17 18-9 15-2 7l-6-6q-6-6-18-15t-26-18-36-16-42-7q-47 0-93 23l-24-97q-21-82-25-95t-12-22q-16-14-34-14z"/><path id="l" stroke-width="1" d="M56 237v13l14 20h299v150l1 150q10 13 19 13 13 0 20-15V270h298q15-8 15-20t-15-20H409V-68q-8-14-18-14h-4q-12 0-18 14v298H70q-14 7-14 20z"/><path id="m" stroke-width="1" d="M34 159q0 109 86 196t186 87q56 0 88-24t33-63q0-29-19-49t-48-21q-19 0-30 10t-11 30 11 34 22 21 14 6h1q0 2-6 6t-21 8-34 4q-30 0-57-14-21-9-43-31-44-44-64-124t-21-116q0-46 26-69 22-24 58-24h4q112 0 185 85 9 10 12 10 4 0 13-9t10-14-9-15-29-28-45-30-64-25-80-11q-75 0-121 48T34 159z"/><path id="n" stroke-width="1" d="M213 578l-13-5q-14-5-40-10t-58-7H83v46h19q47 2 87 15t56 24 28 22q2 3 12 3 9 0 17-6V361l1-300q7-7 12-9t24-4 62-2h26V0h-11q-21 3-159 3-136 0-157-3H88v46h64q16 0 25 1t16 3 8 2 6 5 6 4v517z"/><path id="o" stroke-width="1" d="M184-11q-68 0-110 45T31 147q0 100 73 186t170 97q1 1 140 1h138q1-1 3-2t4-2 3-2 3-3 2-2 2-4 1-4 1-5 1-6q0-44-65-44h-17q-10 0-14 1h-60l5-10q18-38 18-85 0-110-80-192T184-11zm177 289q0 80-85 80-124 0-161-174-1-4-1-6-8-37-8-61 0-50 25-70t57-21q54 0 99 47 29 30 47 80t22 80 5 45z"/></defs><g fill="currentColor" stroke="currentColor" stroke-width="0" transform="scale(1 -1)"><use xlink:href="#a"/><use x="556" xlink:href="#a"/><use x="1113" xlink:href="#b"/><use x="1474" xlink:href="#c"/><use x="2392" xlink:href="#d"/><use x="2781" xlink:href="#e"/><use x="3354" xlink:href="#f"/><use x="3799" xlink:href="#g"/><use x="4296" xlink:href="#h"/><use x="4963" xlink:href="#i"/><path stroke="none" d="M6139 220h12613v60H6139z"/><g transform="translate(7259 770)"><use xlink:href="#d"/><use x="389" xlink:href="#j"/><g transform="translate(890)"><use xlink:href="#k"/><use x="853" y="-213" transform="scale(.707)" xlink:href="#e"/></g><g transform="translate(1998)"><use xlink:href="#k"/><use x="853" y="-213" transform="scale(.707)" xlink:href="#g"/></g><use x="3275" xlink:href="#l"/><g transform="translate(4276)"><use xlink:href="#m"/><use x="613" y="-213" transform="scale(.707)" xlink:href="#n"/></g><use x="5163" xlink:href="#h"/><use x="5553" xlink:href="#d"/><use x="5942" xlink:href="#j"/><g transform="translate(6443)"><use xlink:href="#o"/><g transform="matrix(.707 0 0 .707 571 -150)"><use xlink:href="#e"/><use x="572" xlink:href="#g"/></g></g><use x="8093" xlink:href="#l"/><g transform="translate(9094)"><use xlink:href="#m"/><use x="613" y="-213" transform="scale(.707)" xlink:href="#j"/></g><use x="9981" xlink:href="#h"/></g><g transform="translate(6199 -792)"><use xlink:href="#d"/><g transform="translate(389)"><use xlink:href="#k"/><use x="853" y="488" transform="scale(.707)" xlink:href="#j"/><use x="853" y="-211" transform="scale(.707)" xlink:href="#e"/></g><use x="1720" xlink:href="#l"/><g transform="translate(2720)"><use xlink:href="#k"/><use x="853" y="488" transform="scale(.707)" xlink:href="#j"/><use x="853" y="-212" transform="scale(.707)" xlink:href="#g"/></g><use x="4000" xlink:href="#l"/><g transform="translate(5001)"><use xlink:href="#m"/><use x="613" y="-213" transform="scale(.707)" xlink:href="#n"/></g><use x="5888" xlink:href="#h"/><use x="6278" xlink:href="#d"/><g transform="translate(6667)"><use xlink:href="#o"/><use x="810" y="488" transform="scale(.707)" xlink:href="#j"/><use x="808" y="-211" transform="scale(.707)" xlink:href="#e"/></g><use x="7966" xlink:href="#l"/><g transform="translate(8966)"><use xlink:href="#o"/><use x="810" y="488" transform="scale(.707)" xlink:href="#j"/><use x="808" y="-212" transform="scale(.707)" xlink:href="#g"/></g><use x="10215" xlink:href="#l"/><g transform="translate(11216)"><use xlink:href="#m"/><use x="613" y="-213" transform="scale(.707)" xlink:href="#j"/></g><use x="12103" xlink:href="#h"/></g></g></svg>